/* XPM */
static char * east_xpm[] = {
"32 32 2 1",
"  c #74C96B",
". c #2F7A37",
"                                ",
"                                ",
"                                ",
"                                ",
"                                ",
"                                ",
"                                ",
"            .... ....           ",
"          ...... ......         ",
"         ....... .......        ",
"        ........ ........       ",
"        ........ ........       ",
"       ......... .........      ",
"       ......... .........      ",
"       ......... .........      ",
"       ......... .........      ",
"                                ",
"       ......... .........      ",
"       ......... .........      ",
"       ......... .........      ",
"       ......... .........      ",
"        ........ ........       ",
"        ........ ........       ",
"         ....... .......        ",
"          ...... ......         ",
"            .... ....           ",
"                                ",
"                                ",
"                                ",
"                                ",
"                                ",
"                                ",
"								 "
};